<svg xmlns="http://www.w3.org/2000/svg" width="42" height="42"><defs><clipPath id="clip-path"><path id="Прямоугольник_467" data-name="Прямоугольник 467" fill="none" d="M0 0h19.148v19.115H0z"/></clipPath></defs><g id="Сгруппировать_3184" data-name="Сгруппировать 3184" transform="translate(-1638 -4464)"><g id="Эллипс_40" data-name="Эллипс 40" transform="translate(1638 4464)" fill="none" stroke="#fff" stroke-width="1"><circle cx="21" cy="21" r="21" stroke="none"/><circle cx="21" cy="21" r="20.5"/></g><g id="Сгруппировать_3097" data-name="Сгруппировать 3097" transform="translate(1649.426 4475)" clip-path="url(#clip-path)"><path id="Контур_4777" data-name="Контур 4777" d="M19.147 19.115h-3.965v-6.209c0-1.48-.026-3.386-2.062-3.386-2.065 0-2.381 1.613-2.381 3.279v6.316H6.775V6.347h3.806v1.745h.053a4.171 4.171 0 013.755-2.062c4.018 0 4.759 2.643 4.759 6.082zM2.3 4.6a2.3 2.3 0 112.3-2.3 2.3 2.3 0 01-2.3 2.3m1.983 14.515H.315V6.347h3.968z" fill="#fff"/></g></g></svg>