<svg xmlns="http://www.w3.org/2000/svg" width="42" height="42"><g id="Сгруппировать_3184" data-name="Сгруппировать 3184" transform="translate(-1585 -4464)"><g id="Эллипс_39" data-name="Эллипс 39" transform="translate(1585 4464)" fill="none" stroke="#fff" stroke-width="1"><circle cx="21" cy="21" r="21" stroke="none"/><circle cx="21" cy="21" r="20.5"/></g><path id="Контур_4776" data-name="Контур 4776" d="M8.4.81zM.821-1.565A5.06 5.06 0 00-4.236 3.5 5.083 5.083 0 00-4.1 4.655 14.35 14.35 0 01-14.527-.638a5.043 5.043 0 00-.684 2.546 5.067 5.067 0 002.249 4.217 5.041 5.041 0 01-2.29-.634v.064a5.066 5.066 0 004.052 4.967 5.076 5.076 0 01-1.332.178 5.032 5.032 0 01-.951-.091 5.061 5.061 0 004.723 3.517 10.133 10.133 0 01-6.28 2.17 10.219 10.219 0 01-1.206-.071A14.3 14.3 0 00-8.491 18.5 14.3 14.3 0 005.895 4.087c0-.22 0-.439-.015-.655A10.264 10.264 0 008.4.81a10.094 10.094 0 01-2.9.8 5.082 5.082 0 002.223-2.8A10.145 10.145 0 014.511.034a5.044 5.044 0 00-3.69-1.6" transform="translate(1609.598 4477.703)" fill="#fff"/></g></svg>