<svg xmlns="http://www.w3.org/2000/svg" width="30" height="29"><g id="Сгруппировать_3177" data-name="Сгруппировать 3177" transform="translate(-901 -2453)" stroke="#525252" stroke-width="1"><g id="Прямоугольник_610" data-name="Прямоугольник 610" fill="#fff"><path stroke="none" d="M0 0h30v25H0z" transform="translate(901 2457)"/><path fill="none" d="M.5.5h29v24H.5z" transform="translate(901 2457)"/></g><g id="Прямоугольник_612" data-name="Прямоугольник 612" fill="#525252"><path stroke="none" d="M0 0h30v6H0z" transform="translate(901 2457)"/><path fill="none" d="M.5.5h29v5H.5z" transform="translate(901 2457)"/></g><g id="Прямоугольник_613" data-name="Прямоугольник 613" fill="#525252"><path stroke="none" d="M0 0h4v7H0z" transform="translate(906 2453)"/><path fill="none" d="M.5.5h3v6h-3z" transform="translate(906 2453)"/></g><g id="Прямоугольник_614" data-name="Прямоугольник 614" fill="#525252"><path stroke="none" d="M0 0h4v7H0z" transform="translate(923 2453)"/><path fill="none" d="M.5.5h3v6h-3z" transform="translate(923 2453)"/></g></g></svg>